<?xml version="1.0" encoding="utf-8"?>
<!-- Generator: Adobe Illustrator 24.1.1, SVG Export Plug-In . SVG Version: 6.00 Build 0)  -->
<svg version="1.1" id="Ebene_1" xmlns="http://www.w3.org/2000/svg" xmlns:xlink="http://www.w3.org/1999/xlink" x="0px" y="0px"
	 viewBox="0 0 210 297" style="enable-background:new 0 0 210 297;" xml:space="preserve">
<style type="text/css">
	.st0{fill:#A75543;}
	.st1{fill:#813C2E;}
	.st2{fill:#1E2533;}
	.st3{fill:#E1E6F0;}
	.st4{fill:#F3F5F9;}
	.st5{fill:#353D4D;}
	.st6{opacity:0.19;}
	.st7{fill:#010202;stroke:#1E2533;stroke-width:2;stroke-miterlimit:10;}
</style>
<g>
	<g>
		<g>
			<path class="st0" d="M58.5,66.9v78h78v-78H58.5z"/>
		</g>
		<path class="st1" d="M97.5,66.9h39v78h-39V66.9z"/>
		<path class="st2" d="M118.8,73.9l-4.6,6.1l4.6,4.6l6.1,6.1l4.6-6.1V73.9H118.8z"/>
		<path class="st3" d="M108.2,73.9l-6.1,6.1l6.1,4.6l6.1,6.1l4.6-6.1V73.9H108.2z"/>
		<path class="st2" d="M97.5,73.9L92.9,80l4.6,4.6l4.6,6.1l6.1-6.1V73.9H97.5z"/>
		<path class="st4" d="M86.8,73.9L82.3,80l4.6,4.6l6.1,6.1l4.6-6.1V73.9H86.8z"/>
		<path class="st5" d="M76.2,73.9L71.6,80l4.6,4.6l6.1,6.1l4.6-6.1V73.9H76.2z"/>
		<path class="st4" d="M76.2,84.6l-4.6,6.1l-6.1-6.1V73.9h10.7V84.6z"/>
		<path class="st3" d="M118.8,84.6l-4.6,6.1l4.6,4.6l6.1,4.6l4.6-4.6V84.6H118.8z"/>
		<path class="st2" d="M108.2,84.6l-6.1,6.1l6.1,4.6l6.1,4.6l4.6-4.6V84.6H108.2z"/>
		<path class="st3" d="M97.5,84.6l-4.6,6.1l4.6,4.6l4.6,4.6l6.1-4.6V84.6H97.5z"/>
		<path class="st5" d="M86.8,84.6l-4.6,6.1l4.6,4.6l6.1,4.6l4.6-4.6V84.6H86.8z"/>
		<path class="st4" d="M76.2,84.6l-4.6,6.1l4.6,4.6l6.1,4.6l4.6-4.6V84.6H76.2z"/>
		<path class="st5" d="M76.2,95.3l-4.6,4.6l-6.1-4.6V84.6h10.7V95.3z"/>
		<path class="st2" d="M118.8,95.3l-4.6,4.6l4.6,6.1l6.1,4.6l4.6-4.6V95.3H118.8z"/>
		<path class="st3" d="M108.2,95.3l-6.1,4.6l6.1,6.1l6.1,4.6l4.6-4.6V95.3H108.2z"/>
		<path class="st2" d="M97.5,95.3l-4.6,4.6l4.6,6.1l4.6,4.6l6.1-4.6V95.3H97.5z"/>
		<path class="st4" d="M86.8,95.3l-4.6,4.6l4.6,6.1l6.1,4.6l4.6-4.6V95.3H86.8z"/>
		<path class="st5" d="M76.2,95.3l-4.6,4.6l4.6,6.1l6.1,4.6l4.6-4.6V95.3H76.2z"/>
		<path class="st4" d="M76.2,105.9l-4.6,4.6l-6.1-4.6V95.3h10.7V105.9z"/>
		<path class="st3" d="M118.8,105.9l-4.6,4.6l4.6,6.1l6.1,4.6l4.6-4.6v-10.7H118.8z"/>
		<path class="st2" d="M108.2,105.9l-6.1,4.6l6.1,6.1l6.1,4.6l4.6-4.6v-10.7H108.2z"/>
		<path class="st3" d="M97.5,105.9l-4.6,4.6l4.6,6.1l4.6,4.6l6.1-4.6v-10.7H97.5z"/>
		<path class="st5" d="M86.8,105.9l-4.6,4.6l4.6,6.1l6.1,4.6l4.6-4.6v-10.7H86.8z"/>
		<path class="st4" d="M76.2,105.9l-4.6,4.6l4.6,6.1l6.1,4.6l4.6-4.6v-10.7H76.2z"/>
		<path class="st5" d="M76.2,116.6l-4.6,4.6l-6.1-4.6v-10.7h10.7V116.6z"/>
		<path class="st2" d="M118.8,116.6l-4.6,4.6l4.6,6.1l6.1,4.6l4.6-4.6v-10.7H118.8z"/>
		<path class="st3" d="M108.2,116.6l-6.1,4.6l6.1,6.1l6.1,4.6l4.6-4.6v-10.7H108.2z"/>
		<path class="st2" d="M97.5,116.6l-4.6,4.6l4.6,6.1l4.6,4.6l6.1-4.6v-10.7H97.5z"/>
		<path class="st4" d="M86.8,116.6l-4.6,4.6l4.6,6.1l6.1,4.6l4.6-4.6v-10.7H86.8z"/>
		<path class="st5" d="M76.2,116.6l-4.6,4.6l4.6,6.1l6.1,4.6l4.6-4.6v-10.7H76.2z"/>
		<path class="st4" d="M76.2,127.3l-4.6,4.6l-6.1-4.6v-10.7h10.7V127.3z"/>
		<path class="st3" d="M118.8,127.3l-4.6,4.6l4.6,6.1h10.7v-10.7H118.8z"/>
		<path class="st2" d="M108.2,127.3l-6.1,4.6l6.1,6.1h10.7v-10.7H108.2z"/>
		<path class="st3" d="M97.5,127.3l-4.6,4.6l4.6,6.1h10.7v-10.7H97.5z"/>
		<path class="st5" d="M86.8,127.3l-4.6,4.6l4.6,6.1h10.7v-10.7H86.8z"/>
		<path class="st4" d="M76.2,127.3l-4.6,4.6l4.6,6.1h10.7v-10.7H76.2z"/>
		<path class="st5" d="M65.5,127.3h10.7v10.7H65.5V127.3z"/>
	</g>
	<g>
		<path class="st5" d="M150.9,168.2c0.2,0.6,0.3,1.8,0.3,1.8h-29.3c0,0,0-1.2,0.3-1.9c0.3-0.6,1-1.2,1-1.2h0.1
			c0-0.1,0.1-0.3,0.1-0.4h0c-1.2-1.6-2-4-1.8-6.4c0.2-2.4,2-4.9,3.2-6.8l0-0.2c0-0.1,0-0.1,0-0.3c-0.3-0.1-1-0.7-0.8-1.4
			c0.2-1,1.1-1.2,1.4-1.2h0.2l0.1-0.2l0-0.2c3-6.8,5.4-10.6,6.2-23.4c-0.1-0.2-0.2-0.3-0.3-0.5c-1.6,0-2.8,0-2.9,0
			c-0.2,0-1.7-0.9-1.5-2.2c0.1-1.7,1.7-2.3,1.8-2.3c0,0,0.6,0,1.3,0l0.4-7.6c0,0-4.7-7-5.5-8.2c-0.5-0.9-1-2-1-3
			c0-2.5,2-4.5,4.4-4.5c0.7,0,1.8,0,2.5,0c0,0,0-0.8,0-1.1c0-0.7,0.6-1.3,1.3-1.3c1.4,0,7.3,0,8.4,0c0.7,0,1.3,0.6,1.3,1.3
			c0,0.3,0,1.1,0,1.1c0.7,0,1.8,0,2.5,0c2.4,0,4.4,2,4.4,4.5c0,1.1-0.5,2.2-1,3c-0.7,1.2-5.4,8-5.4,8l0.4,7.8c0.8,0,1.3,0,1.4,0
			c0.2,0,1.6,0.7,1.8,2.4c0.1,1.3-1.2,2.1-1.4,2.1c-0.1,0-1.3,0-2.9,0c0,0.3-0.1,0.7-0.2,1.1c0.9,12.4,3.7,16.1,6.6,22.8l0,0.1
			l0,0.2c0.1,0,0.2,0,0.2,0c0.3,0,1.2,0.2,1.4,1.2c0.2,0.8-0.6,1.4-0.9,1.4l-0.2,0.2c0,0.1,0.1,0.2,0.1,0.4c1.4,2.1,2.7,4.8,2.8,7.2
			c0.1,2.3-0.5,4.1-1.6,5.7c0,0.3,0.1,0.5,0,0.7C150.1,167.1,150.7,167.7,150.9,168.2z M132.7,92c1.1-1.2,2.5-1.7,3-1.1
			c0.5,0.5,0,1.9-1.1,3.1c-0.2,0.2-0.4,0.3-0.5,0.5c0.8,0.5,1.7,0.8,2.7,0.8c1,0,1.9-0.3,2.7-0.7c-0.2-0.2-0.4-0.3-0.6-0.5
			c-1.1-1.2-1.6-2.5-1.1-3.1c0.5-0.5,1.9,0,3,1.1c0.2,0.2,0.4,0.4,0.5,0.6c0.5-0.8,0.7-1.7,0.7-2.7c0-1-0.3-1.9-0.7-2.7
			c-0.1,0.2-0.3,0.3-0.4,0.5c-1.1,1.2-2.5,1.7-3,1.1c-0.5-0.5,0-1.9,1.1-3.1c0.2-0.2,0.3-0.3,0.5-0.4c-0.8-0.5-1.7-0.7-2.6-0.7
			c-0.9,0-1.8,0.3-2.6,0.7c0.2,0.1,0.4,0.3,0.5,0.5c1.1,1.2,1.6,2.5,1.1,3.1c-0.5,0.5-1.9,0-3-1.1c-0.2-0.2-0.4-0.4-0.5-0.6
			c-0.5,0.8-0.8,1.7-0.8,2.8c0,1,0.3,1.9,0.7,2.7C132.4,92.3,132.5,92.2,132.7,92z"/>
	</g>
	<g class="st6">
		<path class="st5" d="M149.7,168.2c0.2,0.6,0.3,1.8,0.3,1.8h-29.3c0,0,0-1.2,0.3-1.9c0.3-0.6,1-1.2,1-1.2h0.1
			c0-0.1,0.1-0.3,0.1-0.4h0c-1.2-1.6-2-4-1.8-6.4s2-4.9,3.2-6.8l0-0.2c0-0.1,0-0.1,0-0.3c-0.3-0.1-1-0.7-0.8-1.4
			c0.2-1,1.1-1.2,1.4-1.2h0.2l0.1-0.2l0-0.2c3-6.8,5.4-10.6,6.2-23.4c-0.1-0.2-0.2-0.3-0.3-0.5c-1.6,0-2.8,0-2.9,0
			c-0.2,0-1.7-0.9-1.5-2.2c0.1-1.7,1.7-2.3,1.8-2.3c0,0,0.6,0,1.3,0l0.4-7.6c0,0-4.7-7-5.5-8.2c-0.5-0.9-1-2-1-3
			c0-2.5,2-4.5,4.4-4.5c0.7,0,1.8,0,2.5,0c0,0,0-0.8,0-1.1c0-0.7,0.6-1.3,1.3-1.3c1.4,0,7.3,0,8.4,0c0.7,0,1.3,0.6,1.3,1.3
			c0,0.3,0,1.1,0,1.1c0.7,0,1.8,0,2.5,0c2.4,0,4.4,2,4.4,4.5c0,1.1-0.5,2.2-1,3c-0.7,1.2-5.4,8-5.4,8l0.4,7.8c0.8,0,1.3,0,1.4,0
			c0.2,0,1.6,0.7,1.8,2.4c0.1,1.3-1.2,2.1-1.4,2.1c-0.1,0-1.3,0-2.9,0c0,0.3-0.1,0.7-0.2,1.1c0.9,12.4,3.7,16.1,6.6,22.8l0,0.1
			l0,0.2c0.1,0,0.2,0,0.2,0c0.3,0,1.2,0.2,1.4,1.2c0.2,0.8-0.6,1.4-0.9,1.4l-0.2,0.2c0,0.1,0.1,0.2,0.1,0.4c1.4,2.1,2.7,4.8,2.8,7.2
			c0.1,2.3-0.5,4.1-1.6,5.7c0,0.3,0.1,0.5,0,0.7C148.9,167.1,149.5,167.7,149.7,168.2z M131.5,92c1.1-1.2,2.5-1.7,3-1.1
			c0.5,0.5,0,1.9-1.1,3.1c-0.2,0.2-0.4,0.3-0.5,0.5c0.8,0.5,1.7,0.8,2.7,0.8c1,0,1.9-0.3,2.7-0.7c-0.2-0.2-0.4-0.3-0.6-0.5
			c-1.1-1.2-1.6-2.5-1.1-3.1c0.5-0.5,1.9,0,3,1.1c0.2,0.2,0.4,0.4,0.5,0.6c0.5-0.8,0.7-1.7,0.7-2.7c0-1-0.3-1.9-0.7-2.7
			c-0.1,0.2-0.3,0.3-0.4,0.5c-1.1,1.2-2.5,1.7-3,1.1c-0.5-0.5,0-1.9,1.1-3.1c0.2-0.2,0.3-0.3,0.5-0.4c-0.8-0.5-1.7-0.7-2.6-0.7
			c-0.9,0-1.8,0.3-2.6,0.7c0.2,0.1,0.4,0.3,0.5,0.5c1.1,1.2,1.6,2.5,1.1,3.1c-0.5,0.5-1.9,0-3-1.1c-0.2-0.2-0.4-0.4-0.5-0.6
			c-0.5,0.8-0.8,1.7-0.8,2.8c0,1,0.3,1.9,0.7,2.7C131.2,92.3,131.4,92.2,131.5,92z"/>
	</g>
	<line class="st7" x1="126.1" y1="134.5" x2="104.3" y2="112.8"/>
	<g>
		<path class="st2" d="M148.6,153.4c0-0.2-0.1-0.2-0.1-0.4l0.2-0.2c0.3,0,1.1-0.6,0.9-1.4c-0.2-0.9-1.1-1.2-1.4-1.2c0,0-0.1,0-0.2,0
			l0-0.2l0-0.1c-2.9-6.7-5.7-10.4-6.6-22.8c0.1-0.4,0.2-0.7,0.2-1.1c1.6,0,2.9,0,2.9,0c0.2,0,1.6-0.8,1.4-2.1
			c-0.2-1.7-1.6-2.4-1.8-2.4c0,0-0.6,0-1.4,0l-0.4-7.8c0,0,4.7-6.9,5.4-8c0.5-0.9,1-2,1-3c0-2.5-2-4.5-4.4-4.5c-0.7,0-1.8,0-2.5,0
			c0,0,0-0.8,0-1.1c0-0.7-0.6-1.3-1.3-1.3c-0.5,0-2.2,0-4,0V170h14.4c0,0-0.1-1.2-0.3-1.8c-0.2-0.5-0.8-1-0.9-1.2c0-0.2,0-0.5,0-0.7
			c1.1-1.5,1.7-3.4,1.6-5.7C151.3,158.1,150,155.4,148.6,153.4z"/>
		<path class="st2" d="M139.3,85.3c-0.8-0.5-1.7-0.7-2.6-0.7v10.6c1,0,1.9-0.3,2.7-0.7c-0.2-0.2-0.4-0.3-0.6-0.5
			c-1.1-1.2-1.6-2.5-1.1-3.1c0.5-0.5,1.9,0,3,1.1c0.2,0.2,0.4,0.4,0.5,0.6c0.5-0.8,0.7-1.7,0.7-2.7c0-1-0.3-1.9-0.7-2.7
			c-0.1,0.2-0.3,0.3-0.4,0.5c-1.1,1.2-2.5,1.7-3,1.1c-0.5-0.5,0-1.9,1.1-3.1C139,85.5,139.2,85.4,139.3,85.3z"/>
	</g>
</g>
</svg>
